<?xml version="1.0" encoding="utf-8"?><svg viewBox="0 0 48 43" xmlns="http://www.w3.org/2000/svg" xmlns:xlink="http://www.w3.org/1999/xlink"><style>:root>svg{display:none}:root>svg:target{display:block}</style><svg fill="none" viewBox="0 0 17 14" id="check" xmlns="http://www.w3.org/2000/svg"><path d="M1 8.5l3.5 4L16 1.5" stroke="#0078BB" stroke-width="2" stroke-linecap="round"/></svg><svg viewBox="0 0 48 43" fill="none" id="paw" xmlns="http://www.w3.org/2000/svg"><path d="M24 19C16.56 19 6.084 30.503 6.084 37.769 6.002 41.04 8.51 43 12.731 43c4.575 0 7.603-2.353 11.269-2.353 3.703 0 6.74 2.353 11.269 2.353 4.134 0 6.725-1.958 6.725-5.227C41.916 30.513 31.444 19 24 19zm-13.8-1.181c-.972-3.246-3.984-5.355-6.714-4.699-2.73.656-4.152 3.818-3.18 7.061.973 3.253 3.985 5.363 6.715 4.706 2.73-.656 4.145-3.825 3.179-7.068zm7.94-1.95c2.895-.762 4.348-4.603 3.235-8.754-1.113-4.15-4.36-6.665-7.265-5.988-2.894.762-4.347 4.604-3.234 8.754 1.115 4.066 4.358 6.756 7.265 5.988zm26.382-2.747c-2.73-.572-5.742 1.453-6.715 4.699-.972 3.246.446 6.41 3.176 7.066 2.73.571 5.73-1.454 6.714-4.7.969-3.25-.531-6.409-3.175-7.065zm-14.663 2.747c2.822.762 6.152-1.922 7.265-5.988 1.113-4.066-.34-7.992-3.234-8.754-2.822-.761-6.152 1.922-7.265 5.988-1.116 4.066.337 7.994 3.234 8.754z" fill="#000"/></svg></svg>